<?xml version="1.0" encoding="UTF-8" standalone="no"?>
<svg
   version="1.0"
   width="1200pt"
   height="630pt"
   viewBox="0 0 1200 630"
   preserveAspectRatio="xMidYMid"
   id="svg6"
   sodipodi:docname="logo-wide-social copy 2.svg"
   inkscape:version="1.2.2 (b0a84865, 2022-12-01)"
   inkscape:export-filename="../../../Downloads/LogoWide.webp"
   inkscape:export-xdpi="46.799999"
   inkscape:export-ydpi="46.799999"
   xml:space="preserve"
   xmlns:inkscape="http://www.inkscape.org/namespaces/inkscape"
   xmlns:sodipodi="http://sodipodi.sourceforge.net/DTD/sodipodi-0.dtd"
   xmlns:xlink="http://www.w3.org/1999/xlink"
   xmlns="http://www.w3.org/2000/svg"
   xmlns:svg="http://www.w3.org/2000/svg"><defs
     id="defs10"><linearGradient
       inkscape:collect="always"
       id="linearGradient3070"><stop
         style="stop-color:#828282;stop-opacity:1;"
         offset="0"
         id="stop3066" /><stop
         style="stop-color:#e6e6e7;stop-opacity:1;"
         offset="1"
         id="stop3068" /></linearGradient><linearGradient
       inkscape:collect="always"
       xlink:href="#linearGradient3070"
       id="linearGradient3072"
       x1="485.15768"
       y1="205.70222"
       x2="485.15582"
       y2="21.814026"
       gradientUnits="userSpaceOnUse"
       gradientTransform="matrix(1.746813,0,0,1.746813,-28.674939,89.673093)" /></defs><sodipodi:namedview
     id="namedview8"
     pagecolor="#ffffff"
     bordercolor="#000000"
     borderopacity="0.25"
     inkscape:showpageshadow="2"
     inkscape:pageopacity="0.0"
     inkscape:pagecheckerboard="0"
     inkscape:deskcolor="#d1d1d1"
     inkscape:document-units="pt"
     showgrid="false"
     inkscape:zoom="0.36707087"
     inkscape:cx="460.40156"
     inkscape:cy="618.40919"
     inkscape:window-width="1728"
     inkscape:window-height="1000"
     inkscape:window-x="0"
     inkscape:window-y="38"
     inkscape:window-maximized="0"
     inkscape:current-layer="svg6" /><g
     inkscape:groupmode="layer"
     id="layer1"
     inkscape:label="rect" /><text
     xml:space="preserve"
     style="font-style:normal;font-variant:normal;font-weight:300;font-stretch:normal;font-size:271.09px;font-family:'Helvetica Neue';-inkscape-font-specification:'Helvetica Neue, Light';font-variant-ligatures:normal;font-variant-caps:normal;font-variant-numeric:normal;font-variant-east-asian:normal;fill:#3d4c5c;fill-opacity:1;fill-rule:evenodd;stroke:none;stroke-width:1.24793;stroke-opacity:1;paint-order:stroke markers fill"
     x="502.284"
     y="401.11407"
     id="text1155"><tspan
       sodipodi:role="line"
       id="tspan1153"
       style="font-style:normal;font-variant:normal;font-weight:300;font-stretch:normal;font-size:271.09px;font-family:'Helvetica Neue';-inkscape-font-specification:'Helvetica Neue, Light';font-variant-ligatures:normal;font-variant-caps:normal;font-variant-numeric:normal;font-variant-east-asian:normal;fill:#3d4c5c;fill-opacity:1;stroke:none;stroke-width:1.24793;stroke-opacity:1"
       x="502.284"
       y="401.11407">cerlib</tspan></text><g
     id="svgg"
     transform="matrix(0.75,0,0,0.75,-203.37908,62.491384)"><path
       style="fill:#3d4c5c;fill-opacity:1;stroke-width:2.937"
       d="m 790.34243,465.41852 c 6.36449,5.2073 20.68532,16.87014 31.82244,25.91612 l 20.2477,16.45309 -9.64218,10.5086 c -39.68773,43.26501 -99.96093,74.51767 -159.74364,82.82938 -13.68937,1.90612 -60.09697,2.13815 -61.92379,0.31426 -0.41705,-0.41705 4.10594,-6.86377 10.05043,-14.32377 10.77587,-13.5249 34.28952,-43.59981 47.03024,-60.14395 6.41148,-8.32935 7.00476,-8.78459 13.26351,-10.16791 34.48631,-7.62153 68.22954,-27.59903 89.25555,-52.84258 8.07675,-9.69798 5.79176,-9.8654 19.63974,1.45676"
       id="path8557" /><path
       style="fill:#3d4c5c;fill-opacity:1;stroke-width:2.937"
       d="m 479.80715,387.97854 c 12.76128,62.45539 60.68731,111.90572 124.78741,128.75237 l 4.93711,1.29815 -5.55975,6.53484 c -3.05742,3.59489 -15.31354,18.79683 -27.23483,33.78436 -11.91837,14.98753 -22.47397,27.24658 -23.45199,27.24658 -0.97802,0 -9.06359,-3.59782 -17.96565,-7.99746 C 458.86044,539.81576 407.10748,468.8695 396.58127,387.40582 l -0.77831,-6.02379 h 41.32952 41.32658 l 1.34809,6.59651"
       id="path8555" /><path
       style="fill:#3d4c5c;fill-opacity:1;stroke-width:2.937"
       d="m 671.42608,231.52141 c 21.94236,4.81375 42.36041,15.98317 59.33629,32.45977 12.82296,12.44701 13.17834,9.89476 -3.52147,25.27585 l -13.53078,12.46464 -9.49826,-9.26625 c -56.61662,-55.23035 -152.01345,-8.74933 -142.16568,69.26631 9.14584,72.46175 97.96084,101.12103 145.3817,46.91276 4.61109,-5.27193 5.3101,-5.68604 7.18097,-4.24104 1.13956,0.87817 7.87998,6.44673 14.97872,12.37066 l 12.90813,10.77 -5.79764,6.69049 c -74.07417,85.50499 -214.53932,32.58019 -214.85652,-80.94969 -0.22321,-79.6163 72.35603,-138.6912 149.58454,-121.7535"
       id="path8553" /><path
       style="fill:#6d9235;fill-opacity:1;stroke-width:2.937"
       d="m 782.98818,76.770662 c 15.80107,4.114751 31.09993,15.947936 37.84916,29.267248 2.51114,4.95766 4.66103,7.26028 10.03868,10.74062 14.65271,9.48359 22.84989,21.8748 23.79267,35.96361 1.1748,17.55449 -2.8254,24.47114 -26.56226,45.9377 -9.54233,8.62891 -24.73838,22.41814 -33.76967,30.64469 -19.64562,17.8981 -17.24609,16.86134 -23.02611,9.95938 C 751.65034,215.79963 713.40174,194.08342 679.36187,187.07573 586.5085,167.95877 494.79761,229.862 479.36072,322.07511 l -1.38039,8.25299 -40.43667,0.30251 c -46.50452,0.34656 -42.59243,1.50374 -40.41905,-11.97124 15.95675,-98.92122 92.13087,-184.29112 185.09586,-207.44353 22.05983,-5.49512 29.83996,-6.34392 67.91821,-7.41005 50.13172,-1.40389 59.03377,-3.02805 73.63949,-13.451481 17.68665,-12.620301 41.72896,-18.135994 59.21001,-13.583647 m -23.29339,32.565498 c -36.90051,12.10046 -25.61067,66.84916 12.95219,62.81665 30.97071,-3.23657 38.78902,-44.0022 11.50424,-59.99419 -5.55387,-3.25419 -18.56186,-4.75501 -24.45643,-2.82246"
       id="path0" /></g></svg>
