<?xml version="1.0" encoding="UTF-8" standalone="no"?>
<svg
   id="svg"
   version="1.1"
   width="200"
   height="200"
   viewBox="0 0 200 200"
   sodipodi:docname="cerlib-logo.svg"
   inkscape:version="1.2.2 (b0a84865, 2022-12-01)"
   xmlns:inkscape="http://www.inkscape.org/namespaces/inkscape"
   xmlns:sodipodi="http://sodipodi.sourceforge.net/DTD/sodipodi-0.dtd"
   xmlns="http://www.w3.org/2000/svg"
   xmlns:svg="http://www.w3.org/2000/svg">
  <defs
     id="defs264" />
  <sodipodi:namedview
     id="namedview262"
     pagecolor="#ffffff"
     bordercolor="#000000"
     borderopacity="0.25"
     inkscape:showpageshadow="2"
     inkscape:pageopacity="0.0"
     inkscape:pagecheckerboard="0"
     inkscape:deskcolor="#d1d1d1"
     showgrid="false"
     inkscape:zoom="4.72"
     inkscape:cx="78.813559"
     inkscape:cy="82.521186"
     inkscape:window-width="1728"
     inkscape:window-height="999"
     inkscape:window-x="0"
     inkscape:window-y="38"
     inkscape:window-maximized="0"
     inkscape:current-layer="svg" />
  <g
     id="svgg"
     transform="translate(-100.1581,-98.64076)">
    <path
       style="fill:#3d4c5c;fill-opacity:1"
       d="m 256.526,243.066 c 2.167,1.773 7.043,5.744 10.835,8.824 l 6.894,5.602 -3.283,3.578 c -13.513,14.731 -34.035,25.372 -54.39,28.202 -4.661,0.649 -20.462,0.728 -21.084,0.107 -0.142,-0.142 1.398,-2.337 3.422,-4.877 3.669,-4.605 11.675,-14.845 16.013,-20.478 2.183,-2.836 2.385,-2.991 4.516,-3.462 11.742,-2.595 23.231,-9.397 30.39,-17.992 2.75,-3.302 1.972,-3.359 6.687,0.496"
       id="path8557" />
    <path
       style="fill:#3d4c5c;fill-opacity:1"
       d="m 150.794,216.699 c 4.345,21.265 20.663,38.102 42.488,43.838 l 1.681,0.442 -1.893,2.225 c -1.041,1.224 -5.214,6.4 -9.273,11.503 -4.058,5.103 -7.652,9.277 -7.985,9.277 -0.333,0 -3.086,-1.225 -6.117,-2.723 -26.033,-12.864 -43.654,-37.02 -47.238,-64.757 l -0.265,-2.051 h 14.072 14.071 l 0.459,2.246"
       id="path8555" />
    <path
       style="fill:#3d4c5c;fill-opacity:1"
       d="m 216.037,163.428 c 7.471,1.639 14.423,5.442 20.203,11.052 4.366,4.238 4.487,3.369 -1.199,8.606 l -4.607,4.244 -3.234,-3.155 c -19.277,-18.805 -51.758,-2.979 -48.405,23.584 3.114,24.672 33.354,34.43 49.5,15.973 1.57,-1.795 1.808,-1.936 2.445,-1.444 0.388,0.299 2.683,2.195 5.1,4.212 l 4.395,3.667 -1.974,2.278 c -25.221,29.113 -73.047,11.093 -73.155,-27.562 -0.076,-27.108 24.636,-47.222 50.931,-41.455"
       id="path8553" />
    <path
       style="fill:#6d9235;fill-opacity:1"
       d="m 254.022,110.738 c 5.38,1.401 10.589,5.43 12.887,9.965 0.855,1.688 1.587,2.472 3.418,3.657 4.989,3.229 7.78,7.448 8.101,12.245 0.4,5.977 -0.962,8.332 -9.044,15.641 -3.249,2.938 -8.423,7.633 -11.498,10.434 -6.689,6.094 -5.872,5.741 -7.84,3.391 -6.694,-7.996 -19.717,-15.39 -31.307,-17.776 -31.615,-6.509 -62.841,14.568 -68.097,45.965 l -0.47,2.81 -13.768,0.103 c -15.834,0.118 -14.502,0.512 -13.762,-4.076 5.433,-33.681 31.369,-62.748 63.022,-70.631 7.511,-1.871 10.16,-2.16 23.125,-2.523 17.069,-0.478 20.1,-1.031 25.073,-4.58 6.022,-4.297 14.208,-6.175 20.16,-4.625 m -7.931,11.088 c -12.564,4.12 -8.72,22.761 4.41,21.388 10.545,-1.102 13.207,-14.982 3.917,-20.427 -1.891,-1.108 -6.32,-1.619 -8.327,-0.961"
       id="path0" />
  </g>
</svg>
